<svg width="763" height="988" viewBox="0 0 763 988" fill="none" xmlns="http://www.w3.org/2000/svg">
<g style="mix-blend-mode:overlay">
<path d="M927.223 -2.09912C938.811 -2.09912 950.399 2.31776 959.245 11.1639C976.925 28.8438 976.925 57.5288 959.245 75.2087L641.714 392.74C624.034 410.42 595.361 410.42 577.669 392.74C559.989 375.06 559.989 346.375 577.669 328.695L895.2 11.1639C904.047 2.31776 915.635 -2.09912 927.223 -2.09912Z" fill="url(#paint0_linear_208_613)"/>
</g>
<path d="M908.728 -154C920.314 -154 931.899 -149.584 940.743 -140.74C958.419 -123.065 958.419 -94.3866 940.743 -76.711L623.286 240.743C605.611 258.419 576.945 258.419 559.257 240.743C541.581 223.068 541.581 194.39 559.257 176.714L876.714 -140.74C885.558 -149.584 897.143 -154 908.728 -154Z" fill="url(#paint1_linear_208_613)"/>
<path style="mix-blend-mode:soft-light" opacity="0.61" d="M79 510.86L601.29 0.23999L707.48 0L79 625.47V510.86Z" fill="url(#paint2_linear_208_613)"/>
<path d="M246.427 355C255.767 355 265.107 358.56 272.237 365.69C286.487 379.94 286.487 403.06 272.237 417.31L16.3075 673.24C2.0575 687.49 -21.0525 687.49 -35.3125 673.24C-49.5625 658.99 -49.5625 635.87 -35.3125 621.62L220.617 365.69C227.747 358.56 237.087 355 246.427 355Z" fill="url(#paint3_linear_208_613)"/>
<path style="mix-blend-mode:overlay" d="M883.9 254L381 756.89H682.83L883.9 558.88V254Z" fill="url(#paint4_linear_208_613)"/>
<g style="mix-blend-mode:overlay">
<path d="M333.997 904C342.206 904 350.414 907.129 356.68 913.395C369.204 925.918 369.204 946.237 356.68 958.761L131.758 1183.68C119.235 1196.21 98.9249 1196.21 86.3926 1183.68C73.8691 1171.16 73.8691 1150.84 86.3926 1138.32L311.315 913.395C317.581 907.129 325.789 904 333.997 904Z" fill="url(#paint5_linear_208_613)"/>
</g>
<path style="mix-blend-mode:overlay" d="M852 519L341 1030H647.687L852 828.797V519Z" fill="url(#paint6_linear_208_613)"/>
<path style="mix-blend-mode:soft-light" d="M-18 1028.01L351.17 656H462.93L-18 1152.2V1028.01Z" fill="url(#paint7_linear_208_613)"/>
<path style="mix-blend-mode:soft-light" d="M0 244L369.18 -128H480.93L0 368.2V244Z" fill="url(#paint8_linear_208_613)"/>
<defs>
<linearGradient id="paint0_linear_208_613" x1="1021.47" y1="-67.5458" x2="581.193" y2="401.437" gradientUnits="userSpaceOnUse">
<stop stop-color="white" stop-opacity="0.31"/>
<stop offset="1" stop-color="white" stop-opacity="0"/>
</linearGradient>
<linearGradient id="paint1_linear_208_613" x1="1002.94" y1="-219.431" x2="562.783" y2="249.442" gradientUnits="userSpaceOnUse">
<stop stop-color="white"/>
<stop offset="1" stop-color="white" stop-opacity="0"/>
</linearGradient>
<linearGradient id="paint2_linear_208_613" x1="376.77" y1="290.21" x2="303.33" y2="189.84" gradientUnits="userSpaceOnUse">
<stop offset="0.19" stop-opacity="0"/>
<stop offset="0.67" stop-color="#060606" stop-opacity="0.48"/>
<stop offset="0.7" stop-color="#0F0E0E" stop-opacity="0.63"/>
<stop offset="0.78" stop-color="#1C1A1B" stop-opacity="0.84"/>
<stop offset="0.86" stop-color="#242122" stop-opacity="0.96"/>
<stop offset="1" stop-color="#272425"/>
</linearGradient>
<linearGradient id="paint3_linear_208_613" x1="322.387" y1="302.25" x2="-32.4725" y2="680.25" gradientUnits="userSpaceOnUse">
<stop stop-color="white" stop-opacity="0.17"/>
<stop offset="1" stop-color="white" stop-opacity="0"/>
</linearGradient>
<linearGradient id="paint4_linear_208_613" x1="1012.98" y1="256.32" x2="594.48" y2="697.96" gradientUnits="userSpaceOnUse">
<stop stop-color="white"/>
<stop offset="0.07" stop-color="white" stop-opacity="0.84"/>
<stop offset="0.16" stop-color="white" stop-opacity="0.64"/>
<stop offset="0.26" stop-color="white" stop-opacity="0.47"/>
<stop offset="0.36" stop-color="white" stop-opacity="0.33"/>
<stop offset="0.47" stop-color="white" stop-opacity="0.21"/>
<stop offset="0.58" stop-color="white" stop-opacity="0.12"/>
<stop offset="0.7" stop-color="white" stop-opacity="0.05"/>
<stop offset="0.83" stop-color="white" stop-opacity="0.01"/>
<stop offset="1" stop-color="white" stop-opacity="0"/>
</linearGradient>
<linearGradient id="paint5_linear_208_613" x1="400.754" y1="857.641" x2="88.8885" y2="1189.84" gradientUnits="userSpaceOnUse">
<stop stop-color="white" stop-opacity="0.23"/>
<stop offset="1" stop-color="white" stop-opacity="0"/>
</linearGradient>
<linearGradient id="paint6_linear_208_613" x1="1107" y1="543" x2="655" y2="875" gradientUnits="userSpaceOnUse">
<stop stop-color="white" stop-opacity="0.35"/>
<stop offset="1" stop-color="white" stop-opacity="0"/>
</linearGradient>
<linearGradient id="paint7_linear_208_613" x1="264.39" y1="786.15" x2="-31.65" y2="1180.54" gradientUnits="userSpaceOnUse">
<stop offset="0.19" stop-opacity="0"/>
<stop offset="0.67" stop-color="#060606" stop-opacity="0.57"/>
<stop offset="0.7" stop-color="#0E0D0E" stop-opacity="0.68"/>
<stop offset="0.78" stop-color="#1C1A1B" stop-opacity="0.86"/>
<stop offset="0.86" stop-color="#242122" stop-opacity="0.97"/>
<stop offset="1" stop-color="#272425"/>
</linearGradient>
<linearGradient id="paint8_linear_208_613" x1="297.02" y1="100.67" x2="-119.56" y2="172.67" gradientUnits="userSpaceOnUse">
<stop offset="0.19" stop-opacity="0"/>
<stop offset="0.67" stop-color="#060606" stop-opacity="0.57"/>
<stop offset="0.7" stop-color="#0E0D0E" stop-opacity="0.68"/>
<stop offset="0.78" stop-color="#1C1A1B" stop-opacity="0.86"/>
<stop offset="0.86" stop-color="#242122" stop-opacity="0.97"/>
<stop offset="1" stop-color="#272425"/>
</linearGradient>
</defs>
</svg>
